<svg height="768" width="1024" xmlns="http://www.w3.org/2000/svg">
<title>Your Diagram Title</title>
<!-- Generated with SankeyMATIC: 6/7/2023, 11:22:11 AM -->
<rect height="768" width="1024" fill="#ffffff"></rect>
<g transform="translate(201.26847656249998,18)">
<g id="sankey_flows">
<path id="flow0" d="M9 216.46497C204.93288 216.46497 204.93288 224.36306 400.86576 224.36306" fill="none" stroke-width="322.86624" stroke="#1b9e77" opacity="0.45"><title>Manual Applications → Applications: 137</title></path>
<path id="flow4" d="M409.86576 131.27389C605.79864 131.27389 605.79864 68.34395 801.73152 68.34395" fill="none" stroke-width="136.6879" stroke="#e6ab02" opacity="0.45"><title>Applications → Never Heard Anything: 58</title></path>
<path id="flow5" d="M409.86576 258.53503C605.79864 258.53503 605.79864 235.6051 801.73152 235.6051" fill="none" stroke-width="117.83439" stroke="#a6761d" opacity="0.45"><title>Applications → Rejected without Contact: 50</title></path>
<path id="flow6" d="M409.86576 332.7707C605.79864 332.7707 605.79864 349.84076 801.73152 349.84076" fill="none" stroke-width="30.63694" stroke="#a6761d" opacity="0.45"><title>Applications → Rejected after Recruiter Chat: 13</title></path>
<path id="flow1" d="M9 432.03822C204.93288 432.03822 204.93288 399.93631 400.86576 399.93631" fill="none" stroke-width="28.28025" stroke="#7570b3" opacity="0.45"><title>LinkedIn Easy Apply → Applications: 12</title></path>
<path id="flow7" d="M409.86576 361.05096C605.79864 361.05096 605.79864 418.12102 801.73152 418.12102" fill="none" stroke-width="25.92357" stroke="#666666" opacity="0.45"><title>Applications → Not Moving Forward after Contact: 11</title></path>
<path id="flow8" d="M409.86576 383.43949C605.79864 383.43949 605.79864 480.50955 801.73152 480.50955" fill="none" stroke-width="18.8535" stroke="#a6761d" opacity="0.45"><title>Applications → Rejected after Hiring Manager Chat: 8</title></path>
<path id="flow9" d="M409.86576 399.93631C605.79864 399.93631 605.79864 537.00637 801.73152 537.00637" fill="none" stroke-width="14.14013" stroke="#a6761d" opacity="0.45"><title>Applications → Rejected after Coding Exercise: 6</title></path>
<path id="flow2" d="M9 492.07007C204.93288 492.07007 204.93288 419.96816 400.86576 419.96816" fill="none" stroke-width="11.78344" stroke="#e7298a" opacity="0.45"><title>Jobot → Applications: 5</title></path>
<path id="flow10" d="M409.86576 412.89809C605.79864 412.89809 605.79864 589.96815 801.73152 589.96815" fill="none" stroke-width="11.78344" stroke="#1b9e77" opacity="0.45"><title>Applications → Ghosted: 5</title></path>
<path id="flow3" d="M9 541.49682C204.93288 541.49682 204.93288 429.39491 400.86576 429.39491" fill="none" stroke-width="7.07006" stroke="#66a61e" opacity="0.45"><title>Hired → Applications: 3</title></path>
<path id="flow11" d="M409.86576 422.32484C605.79864 422.32484 605.79864 639.3949 801.73152 639.3949" fill="none" stroke-width="7.07006" stroke="#d95f02" opacity="0.45"><title>Applications → Position Closed: 3</title></path>
<path id="flow12" d="M409.86576 428.21656C605.79864 428.21656 605.79864 685.28662 801.73152 685.28662" fill="none" stroke-width="4.71338" stroke="#a6761d" opacity="0.45"><title>Applications → Rejected After Take-Home Assessment: 2</title></path>
<path id="flow13" d="M409.86576 431.7516C605.79864 431.7516 605.79864 728.82166 801.73152 728.82166" fill="none" stroke-width="2.35669" stroke="#7570b3" opacity="0.45"><title>Applications → Hired!: 1</title></path>
</g>
<g id="sankey_nodes">
<g class="node">
<rect id="r0" class="for_r0" x="0" y="55.03185" height="322.86624" width="9" fill="#1b9e77" fill-opacity="1"><title>Manual Applications:
137</title></rect>
</g>
<g class="node">
<rect id="r1" class="for_r1" x="400.86576" y="62.92994" height="370" width="9" fill="#d95f02" fill-opacity="1"><title>Applications:
157</title></rect>
</g>
<g class="node">
<rect id="r2" class="for_r2" x="0" y="417.89809" height="28.28025" width="9" fill="#7570b3" fill-opacity="1"><title>LinkedIn Easy Apply:
12</title></rect>
</g>
<g class="node">
<rect id="r3" class="for_r3" x="0" y="486.17835" height="11.78344" width="9" fill="#e7298a" fill-opacity="1"><title>Jobot:
5</title></rect>
</g>
<g class="node">
<rect id="r4" class="for_r4" x="0" y="537.96179" height="7.07006" width="9" fill="#66a61e" fill-opacity="1"><title>Hired:
3</title></rect>
</g>
<g class="node">
<rect id="r5" class="for_r5" x="801.73152" y="0" height="136.6879" width="9" fill="#e6ab02" fill-opacity="1"><title>Never Heard Anything:
58</title></rect>
</g>
<g class="node">
<rect id="r6" class="for_r6" x="801.73152" y="176.6879" height="117.83439" width="9" fill="#a6761d" fill-opacity="1"><title>Rejected without Contact:
50</title></rect>
</g>
<g class="node">
<rect id="r7" class="for_r7" x="801.73152" y="334.52229" height="30.63694" width="9" fill="#a6761d" fill-opacity="1"><title>Rejected after Recruiter Chat:
13</title></rect>
</g>
<g class="node">
<rect id="r8" class="for_r8" x="801.73152" y="405.15924" height="25.92357" width="9" fill="#666666" fill-opacity="1"><title>Not Moving Forward after Contact:
11</title></rect>
</g>
<g class="node">
<rect id="r9" class="for_r9" x="801.73152" y="471.0828" height="18.8535" width="9" fill="#a6761d" fill-opacity="1"><title>Rejected after Hiring Manager Chat:
8</title></rect>
</g>
<g class="node">
<rect id="r10" class="for_r10" x="801.73152" y="529.93631" height="14.14013" width="9" fill="#a6761d" fill-opacity="1"><title>Rejected after Coding Exercise:
6</title></rect>
</g>
<g class="node">
<rect id="r11" class="for_r11" x="801.73152" y="584.07643" height="11.78344" width="9" fill="#1b9e77" fill-opacity="1"><title>Ghosted:
5</title></rect>
</g>
<g class="node">
<rect id="r12" class="for_r12" x="801.73152" y="635.85987" height="7.07006" width="9" fill="#d95f02" fill-opacity="1"><title>Position Closed:
3</title></rect>
</g>
<g class="node">
<rect id="r13" class="for_r13" x="801.73152" y="682.92994" height="4.71338" width="9" fill="#a6761d" fill-opacity="1"><title>Rejected After Take-Home Assessment:
2</title></rect>
</g>
<g class="node">
<rect id="r14" class="for_r14" x="801.73152" y="727.64331" height="2.35669" width="9" fill="#7570b3" fill-opacity="1"><title>Hired!:
1</title></rect>
</g>
</g>
<g id="sankey_labels" font-family="sans-serif" font-size="16px" font-weight="400" fill="#000000">
<text text-anchor="middle" x="310.7315234375" y="745" font-size="11px" font-weight="400" fill="rgb(127, 127, 127)">Made with SankeyMATIC</text>
<rect id="label0_bg" class="for_r0" x="-189.26848" y="205.28497" width="187.63578" height="22.8" rx="4" fill="#fff" fill-opacity="0.55" stroke="none" stroke-width="0" stroke-opacity="0"></rect>
<text id="label0" class="for_r0" text-anchor="end" x="-6.29754" y="216.46497" dy="5.22">Manual Applications: 137</text>
<rect id="label1_bg" class="for_r1" x="267.64411" y="236.74995" width="131.58891" height="22.80002" rx="4" fill="#fff" fill-opacity="0.55" stroke="none" stroke-width="0" stroke-opacity="0"></rect>
<text id="label1" class="for_r1" text-anchor="end" x="394.56822" y="247.92994" dy="5.22">Applications: 157</text>
<rect id="label2_bg" class="for_r2" x="-182.15911" y="420.85821" width="180.52641" height="22.8" rx="4" fill="#fff" fill-opacity="0.55" stroke="none" stroke-width="0" stroke-opacity="0"></rect>
<text id="label2" class="for_r2" text-anchor="end" x="-6.29754" y="432.03822" dy="5.22">LinkedIn Easy Apply: 12</text>
<rect id="label3_bg" class="for_r3" x="-68.29973" y="480.89007" width="66.66703" height="22.8" rx="4" fill="#fff" fill-opacity="0.55" stroke="none" stroke-width="0" stroke-opacity="0"></rect>
<text id="label3" class="for_r3" text-anchor="end" x="-6.29754" y="492.07007" dy="5.22">Jobot: 5</text>
<rect id="label4_bg" class="for_r4" x="-67.39348" y="530.3168" width="65.76078" height="22.8" rx="4" fill="#fff" fill-opacity="0.55" stroke="none" stroke-width="0" stroke-opacity="0"></rect>
<text id="label4" class="for_r4" text-anchor="end" x="-6.29754" y="541.49682" dy="5.22">Hired: 3</text>
<rect id="label5_bg" class="for_r5" x="607.1349" y="57.16395" width="192.96391" height="22.8" rx="4" fill="#fff" fill-opacity="0.55" stroke="none" stroke-width="0" stroke-opacity="0"></rect>
<text id="label5" class="for_r5" text-anchor="end" x="795.43398" y="68.34395" dy="5.22">Never Heard Anything: 58</text>
<rect id="label6_bg" class="for_r6" x="585.80677" y="224.4251" width="214.29203" height="22.8" rx="4" fill="#fff" fill-opacity="0.55" stroke="none" stroke-width="0" stroke-opacity="0"></rect>
<text id="label6" class="for_r6" text-anchor="end" x="795.43398" y="235.6051" dy="5.22">Rejected without Contact: 50</text>
<rect id="label7_bg" class="for_r7" x="556.47865" y="338.66076" width="243.62016" height="22.8" rx="4" fill="#fff" fill-opacity="0.55" stroke="none" stroke-width="0" stroke-opacity="0"></rect>
<text id="label7" class="for_r7" text-anchor="end" x="795.43398" y="349.84076" dy="5.22">Rejected after Recruiter Chat: 13</text>
<rect id="label8_bg" class="for_r8" x="524.7599" y="406.94103" width="275.33891" height="22.8" rx="4" fill="#fff" fill-opacity="0.55" stroke="none" stroke-width="0" stroke-opacity="0"></rect>
<text id="label8" class="for_r8" text-anchor="end" x="795.43398" y="418.12102" dy="5.22">Not Moving Forward after Contact: 11</text>
<rect id="label9_bg" class="for_r9" x="520.90052" y="469.32955" width="279.19828" height="22.8" rx="4" fill="#fff" fill-opacity="0.55" stroke="none" stroke-width="0" stroke-opacity="0"></rect>
<text id="label9" class="for_r9" text-anchor="end" x="795.43398" y="480.50955" dy="5.22">Rejected after Hiring Manager Chat: 8</text>
<rect id="label10_bg" class="for_r10" x="552.02552" y="525.82632" width="248.07328" height="22.8" rx="4" fill="#fff" fill-opacity="0.55" stroke="none" stroke-width="0" stroke-opacity="0"></rect>
<text id="label10" class="for_r10" text-anchor="end" x="795.43398" y="537.00637" dy="5.22">Rejected after Coding Exercise: 6</text>
<rect id="label11_bg" class="for_r11" x="712.08802" y="578.78811" width="88.01078" height="22.8" rx="4" fill="#fff" fill-opacity="0.55" stroke="none" stroke-width="0" stroke-opacity="0"></rect>
<text id="label11" class="for_r11" text-anchor="end" x="795.43398" y="589.96815" dy="5.22">Ghosted: 5</text>
<rect id="label12_bg" class="for_r12" x="661.40052" y="628.21487" width="138.69828" height="22.8" rx="4" fill="#fff" fill-opacity="0.55" stroke="none" stroke-width="0" stroke-opacity="0"></rect>
<text id="label12" class="for_r12" text-anchor="end" x="795.43398" y="639.3949" dy="5.22">Position Closed: 3</text>
<rect id="label13_bg" class="for_r13" x="495.3849" y="674.10659" width="304.71391" height="22.8" rx="4" fill="#fff" fill-opacity="0.55" stroke="none" stroke-width="0" stroke-opacity="0"></rect>
<text id="label13" class="for_r13" text-anchor="end" x="795.43398" y="685.28662" dy="5.22">Rejected After Take-Home Assessment: 2</text>
<rect id="label14_bg" class="for_r14" x="729.90052" y="717.64163" width="70.19828" height="22.8" rx="4" fill="#fff" fill-opacity="0.55" stroke="none" stroke-width="0" stroke-opacity="0"></rect>
<text id="label14" class="for_r14" text-anchor="end" x="795.43398" y="728.82166" dy="5.22">Hired!: 1</text>
</g>
</g></svg>